<svg width="234" height="236" viewBox="0 0 234 236" fill="none" xmlns="http://www.w3.org/2000/svg">
<rect width="234" height="236" fill="#00AB37"/>
<path d="M76.9205 182.273V191H75.8977L71.1421 184.148H71.0568V191H70V182.273H71.0227L75.7955 189.142H75.8807V182.273H76.9205ZM83.0238 188.324V184.455H84.0295V191H83.0238V189.892H82.9556C82.8022 190.224 82.5636 190.507 82.2397 190.74C81.9159 190.97 81.5068 191.085 81.0124 191.085C80.6034 191.085 80.2397 190.996 79.9215 190.817C79.6034 190.635 79.3534 190.362 79.1715 189.999C78.9897 189.632 78.8988 189.17 78.8988 188.614V184.455H79.9045V188.545C79.9045 189.023 80.038 189.403 80.3051 189.688C80.5749 189.972 80.9187 190.114 81.3363 190.114C81.5863 190.114 81.8406 190.05 82.0991 189.922C82.3605 189.794 82.5792 189.598 82.7553 189.334C82.9343 189.07 83.0238 188.733 83.0238 188.324ZM81.0124 183.568L82.0522 181.591H83.2284L81.8988 183.568H81.0124ZM85.8715 191V184.455H86.8431V185.477H86.9283C87.0646 185.128 87.2848 184.857 87.5888 184.663C87.8928 184.467 88.2578 184.369 88.684 184.369C89.1158 184.369 89.4752 184.467 89.7621 184.663C90.0519 184.857 90.2777 185.128 90.4396 185.477H90.5078C90.6754 185.139 90.9269 184.871 91.2621 184.672C91.5973 184.47 91.9993 184.369 92.4681 184.369C93.0533 184.369 93.532 184.553 93.9041 184.919C94.2763 185.283 94.4624 185.849 94.4624 186.619V191H93.4567V186.619C93.4567 186.136 93.3246 185.791 93.0604 185.584C92.7962 185.376 92.4851 185.273 92.1271 185.273C91.6669 185.273 91.3104 185.412 91.0575 185.69C90.8047 185.966 90.6783 186.315 90.6783 186.739V191H89.6556V186.517C89.6556 186.145 89.5348 185.845 89.2933 185.618C89.0519 185.388 88.7408 185.273 88.3601 185.273C88.0987 185.273 87.8544 185.342 87.6271 185.482C87.4027 185.621 87.2209 185.814 87.0817 186.061C86.9453 186.305 86.8771 186.588 86.8771 186.909V191H85.8715ZM99.0455 191.136C98.4148 191.136 97.8708 190.997 97.4134 190.719C96.9588 190.438 96.608 190.045 96.3608 189.543C96.1165 189.037 95.9943 188.449 95.9943 187.778C95.9943 187.108 96.1165 186.517 96.3608 186.006C96.608 185.491 96.9517 185.091 97.3921 184.804C97.8352 184.514 98.3523 184.369 98.9432 184.369C99.2841 184.369 99.6208 184.426 99.9531 184.54C100.286 184.653 100.588 184.838 100.861 185.094C101.134 185.347 101.351 185.682 101.513 186.099C101.675 186.517 101.756 187.031 101.756 187.642V188.068H96.7102V187.199H100.733C100.733 186.83 100.659 186.5 100.511 186.21C100.366 185.92 100.159 185.692 99.8892 185.524C99.6222 185.357 99.3068 185.273 98.9432 185.273C98.5426 185.273 98.196 185.372 97.9034 185.571C97.6137 185.767 97.3906 186.023 97.2344 186.338C97.0781 186.653 97 186.991 97 187.352V187.932C97 188.426 97.0852 188.845 97.2557 189.189C97.429 189.53 97.6691 189.79 97.9759 189.969C98.2827 190.145 98.6392 190.233 99.0455 190.233C99.3097 190.233 99.5483 190.196 99.7614 190.122C99.9773 190.045 100.163 189.932 100.32 189.781C100.476 189.628 100.597 189.437 100.682 189.21L101.653 189.483C101.551 189.812 101.379 190.102 101.138 190.352C100.896 190.599 100.598 190.793 100.243 190.932C99.8878 191.068 99.4887 191.136 99.0455 191.136ZM103.285 191V184.455H104.257V185.443H104.325C104.445 185.119 104.66 184.857 104.973 184.655C105.285 184.453 105.638 184.352 106.03 184.352C106.104 184.352 106.196 184.354 106.307 184.357C106.418 184.359 106.501 184.364 106.558 184.369V185.392C106.524 185.384 106.446 185.371 106.324 185.354C106.205 185.334 106.078 185.324 105.945 185.324C105.626 185.324 105.342 185.391 105.092 185.524C104.845 185.655 104.649 185.837 104.504 186.07C104.362 186.3 104.291 186.562 104.291 186.858V191H103.285ZM110.21 191.136C109.619 191.136 109.101 190.996 108.655 190.714C108.212 190.433 107.865 190.04 107.615 189.534C107.368 189.028 107.244 188.437 107.244 187.761C107.244 187.08 107.368 186.484 107.615 185.976C107.865 185.467 108.212 185.072 108.655 184.791C109.101 184.51 109.619 184.369 110.21 184.369C110.801 184.369 111.318 184.51 111.761 184.791C112.207 185.072 112.554 185.467 112.801 185.976C113.051 186.484 113.176 187.08 113.176 187.761C113.176 188.437 113.051 189.028 112.801 189.534C112.554 190.04 112.207 190.433 111.761 190.714C111.318 190.996 110.801 191.136 110.21 191.136ZM110.21 190.233C110.659 190.233 111.028 190.118 111.318 189.888C111.608 189.658 111.823 189.355 111.962 188.98C112.101 188.605 112.171 188.199 112.171 187.761C112.171 187.324 112.101 186.916 111.962 186.538C111.823 186.161 111.608 185.855 111.318 185.622C111.028 185.389 110.659 185.273 110.21 185.273C109.761 185.273 109.392 185.389 109.102 185.622C108.813 185.855 108.598 186.161 108.459 186.538C108.32 186.916 108.25 187.324 108.25 187.761C108.25 188.199 108.32 188.605 108.459 188.98C108.598 189.355 108.813 189.658 109.102 189.888C109.392 190.118 109.761 190.233 110.21 190.233ZM120.558 191.136C120.012 191.136 119.531 190.999 119.113 190.723C118.696 190.445 118.369 190.053 118.133 189.547C117.897 189.038 117.78 188.438 117.78 187.744C117.78 187.057 117.897 186.46 118.133 185.955C118.369 185.449 118.697 185.058 119.118 184.783C119.538 184.507 120.024 184.369 120.575 184.369C121.001 184.369 121.338 184.44 121.585 184.582C121.835 184.722 122.025 184.881 122.156 185.06C122.289 185.236 122.393 185.381 122.467 185.494H122.552V182.273H123.558V191H122.586V189.994H122.467C122.393 190.114 122.288 190.264 122.152 190.446C122.015 190.625 121.821 190.786 121.568 190.928C121.315 191.067 120.978 191.136 120.558 191.136ZM120.694 190.233C121.098 190.233 121.439 190.128 121.717 189.918C121.995 189.705 122.207 189.411 122.352 189.036C122.497 188.658 122.569 188.222 122.569 187.727C122.569 187.239 122.498 186.811 122.356 186.445C122.214 186.075 122.004 185.788 121.726 185.584C121.447 185.376 121.103 185.273 120.694 185.273C120.268 185.273 119.913 185.382 119.629 185.601C119.348 185.817 119.136 186.111 118.994 186.483C118.855 186.852 118.785 187.267 118.785 187.727C118.785 188.193 118.856 188.616 118.998 188.997C119.143 189.375 119.356 189.676 119.637 189.901C119.921 190.122 120.274 190.233 120.694 190.233ZM127.466 191.153C127.051 191.153 126.674 191.075 126.336 190.919C125.998 190.76 125.73 190.531 125.531 190.233C125.332 189.932 125.233 189.568 125.233 189.142C125.233 188.767 125.307 188.463 125.454 188.23C125.602 187.994 125.799 187.81 126.047 187.676C126.294 187.543 126.566 187.443 126.865 187.378C127.166 187.31 127.468 187.256 127.772 187.216C128.17 187.165 128.492 187.126 128.74 187.101C128.99 187.072 129.171 187.026 129.285 186.96C129.401 186.895 129.46 186.781 129.46 186.619V186.585C129.46 186.165 129.345 185.838 129.115 185.605C128.887 185.372 128.542 185.256 128.079 185.256C127.599 185.256 127.223 185.361 126.95 185.571C126.677 185.781 126.486 186.006 126.375 186.244L125.42 185.903C125.591 185.506 125.818 185.196 126.102 184.974C126.389 184.75 126.701 184.594 127.039 184.506C127.38 184.415 127.716 184.369 128.045 184.369C128.255 184.369 128.497 184.395 128.769 184.446C129.045 184.494 129.311 184.595 129.566 184.749C129.825 184.902 130.039 185.134 130.21 185.443C130.38 185.753 130.465 186.168 130.465 186.688V191H129.46V190.114H129.409C129.34 190.256 129.227 190.408 129.068 190.57C128.909 190.732 128.697 190.869 128.433 190.983C128.168 191.097 127.846 191.153 127.466 191.153ZM127.619 190.25C128.017 190.25 128.352 190.172 128.624 190.016C128.9 189.859 129.107 189.658 129.247 189.411C129.389 189.163 129.46 188.903 129.46 188.631V187.71C129.417 187.761 129.323 187.808 129.178 187.851C129.036 187.891 128.872 187.926 128.684 187.957C128.499 187.986 128.319 188.011 128.143 188.034C127.97 188.054 127.829 188.071 127.721 188.085C127.46 188.119 127.216 188.175 126.988 188.251C126.764 188.325 126.582 188.437 126.443 188.588C126.307 188.736 126.238 188.937 126.238 189.193C126.238 189.543 126.368 189.807 126.626 189.986C126.887 190.162 127.218 190.25 127.619 190.25ZM140.312 185.92L139.409 186.176C139.352 186.026 139.268 185.879 139.157 185.737C139.05 185.592 138.902 185.473 138.714 185.379C138.527 185.286 138.287 185.239 137.994 185.239C137.594 185.239 137.26 185.331 136.993 185.516C136.729 185.697 136.596 185.929 136.596 186.21C136.596 186.46 136.687 186.658 136.869 186.803C137.051 186.947 137.335 187.068 137.721 187.165L138.693 187.403C139.278 187.545 139.714 187.763 140.001 188.055C140.288 188.345 140.432 188.719 140.432 189.176C140.432 189.551 140.324 189.886 140.108 190.182C139.895 190.477 139.596 190.71 139.213 190.881C138.829 191.051 138.383 191.136 137.875 191.136C137.207 191.136 136.655 190.991 136.217 190.702C135.78 190.412 135.503 189.989 135.386 189.432L136.341 189.193C136.432 189.545 136.604 189.81 136.856 189.986C137.112 190.162 137.446 190.25 137.858 190.25C138.327 190.25 138.699 190.151 138.974 189.952C139.253 189.75 139.392 189.509 139.392 189.227C139.392 189 139.312 188.81 139.153 188.656C138.994 188.5 138.75 188.384 138.42 188.307L137.329 188.051C136.73 187.909 136.29 187.689 136.008 187.391C135.73 187.089 135.591 186.713 135.591 186.261C135.591 185.892 135.694 185.565 135.902 185.281C136.112 184.997 136.398 184.774 136.758 184.612C137.122 184.45 137.534 184.369 137.994 184.369C138.642 184.369 139.15 184.511 139.52 184.795C139.892 185.08 140.156 185.455 140.312 185.92ZM144.605 191.136C144.014 191.136 143.495 190.996 143.049 190.714C142.606 190.433 142.259 190.04 142.009 189.534C141.762 189.028 141.639 188.437 141.639 187.761C141.639 187.08 141.762 186.484 142.009 185.976C142.259 185.467 142.606 185.072 143.049 184.791C143.495 184.51 144.014 184.369 144.605 184.369C145.195 184.369 145.713 184.51 146.156 184.791C146.602 185.072 146.948 185.467 147.195 185.976C147.445 186.484 147.57 187.08 147.57 187.761C147.57 188.437 147.445 189.028 147.195 189.534C146.948 190.04 146.602 190.433 146.156 190.714C145.713 190.996 145.195 191.136 144.605 191.136ZM144.605 190.233C145.053 190.233 145.423 190.118 145.713 189.888C146.002 189.658 146.217 189.355 146.356 188.98C146.495 188.605 146.565 188.199 146.565 187.761C146.565 187.324 146.495 186.916 146.356 186.538C146.217 186.161 146.002 185.855 145.713 185.622C145.423 185.389 145.053 185.273 144.605 185.273C144.156 185.273 143.786 185.389 143.497 185.622C143.207 185.855 142.992 186.161 142.853 186.538C142.714 186.916 142.644 187.324 142.644 187.761C142.644 188.199 142.714 188.605 142.853 188.98C142.992 189.355 143.207 189.658 143.497 189.888C143.786 190.118 144.156 190.233 144.605 190.233ZM149.106 191V184.455H150.077V185.443H150.145C150.265 185.119 150.481 184.857 150.793 184.655C151.106 184.453 151.458 184.352 151.85 184.352C151.924 184.352 152.016 184.354 152.127 184.357C152.238 184.359 152.322 184.364 152.378 184.369V185.392C152.344 185.384 152.266 185.371 152.144 185.354C152.025 185.334 151.898 185.324 151.765 185.324C151.447 185.324 151.162 185.391 150.912 185.524C150.665 185.655 150.469 185.837 150.324 186.07C150.182 186.3 150.111 186.562 150.111 186.858V191H149.106ZM156.827 184.455V185.307H153.435V184.455H156.827ZM154.424 182.886H155.43V189.125C155.43 189.409 155.471 189.622 155.553 189.764C155.638 189.903 155.746 189.997 155.877 190.045C156.01 190.091 156.151 190.114 156.299 190.114C156.41 190.114 156.501 190.108 156.572 190.097C156.643 190.082 156.699 190.071 156.742 190.062L156.947 190.966C156.878 190.991 156.783 191.017 156.661 191.043C156.539 191.071 156.384 191.085 156.197 191.085C155.912 191.085 155.634 191.024 155.361 190.902C155.091 190.78 154.867 190.594 154.688 190.344C154.512 190.094 154.424 189.778 154.424 189.398V182.886ZM161.014 191.136C160.383 191.136 159.839 190.997 159.382 190.719C158.927 190.438 158.577 190.045 158.329 189.543C158.085 189.037 157.963 188.449 157.963 187.778C157.963 187.108 158.085 186.517 158.329 186.006C158.577 185.491 158.92 185.091 159.361 184.804C159.804 184.514 160.321 184.369 160.912 184.369C161.253 184.369 161.589 184.426 161.922 184.54C162.254 184.653 162.557 184.838 162.829 185.094C163.102 185.347 163.319 185.682 163.481 186.099C163.643 186.517 163.724 187.031 163.724 187.642V188.068H158.679V187.199H162.702C162.702 186.83 162.628 186.5 162.48 186.21C162.335 185.92 162.128 185.692 161.858 185.524C161.591 185.357 161.275 185.273 160.912 185.273C160.511 185.273 160.165 185.372 159.872 185.571C159.582 185.767 159.359 186.023 159.203 186.338C159.047 186.653 158.969 186.991 158.969 187.352V187.932C158.969 188.426 159.054 188.845 159.224 189.189C159.398 189.53 159.638 189.79 159.944 189.969C160.251 190.145 160.608 190.233 161.014 190.233C161.278 190.233 161.517 190.196 161.73 190.122C161.946 190.045 162.132 189.932 162.288 189.781C162.444 189.628 162.565 189.437 162.65 189.21L163.622 189.483C163.52 189.812 163.348 190.102 163.106 190.352C162.865 190.599 162.567 190.793 162.211 190.932C161.856 191.068 161.457 191.136 161.014 191.136Z" fill="white"/>
<path fill-rule="evenodd" clip-rule="evenodd" d="M139.777 82.0358C128.257 79.8091 119.457 77.6891 117.524 77.2091L117.511 77.0625L117.497 77.0225C119.524 76.5958 129.471 74.7025 140.257 75.6891C159.724 77.4758 157.471 51.2358 141.964 55.7958C147.604 41.0091 125.791 35.0758 122.044 54.4491C119.804 66.0491 117.657 74.8758 117.204 76.7292C117.164 76.7158 117.124 76.7158 117.084 76.7158L117.031 76.7292C116.617 74.7158 114.711 64.7692 115.697 53.9692C117.484 34.5025 91.2441 36.7558 95.8041 52.2624C81.0041 46.6224 75.0841 68.4224 94.4574 72.1691C106.044 74.4224 114.871 76.5558 116.737 77.0091C116.724 77.0491 116.711 77.1025 116.724 77.1425V77.1958C114.671 77.6225 104.737 79.5158 93.9641 78.5291C74.5108 76.7425 76.7508 102.982 92.2574 98.4224C86.6174 113.209 108.431 119.129 112.177 99.7558C114.164 89.5558 116.057 81.4891 116.791 78.4358C117.097 84.4491 116.484 90.4758 115.244 96.3424C113.924 102.649 111.937 108.809 109.857 114.942C107.684 121.036 105.684 127.423 104.857 134.009C103.964 140.596 104.111 147.382 105.404 153.969V153.982L105.417 154.049C105.657 155.076 106.684 155.716 107.711 155.476C108.751 155.223 109.391 154.196 109.151 153.169C107.711 147.036 107.311 140.676 107.924 134.369C108.217 131.209 108.751 128.063 109.484 124.956C110.204 121.836 111.151 118.782 112.084 115.649C113.937 109.409 115.697 103.103 116.777 96.6358C117.657 91.4625 118.057 86.1958 117.817 80.9558C118.457 85.2225 119.231 92.5158 118.524 100.249C116.737 119.702 142.991 117.463 138.431 101.956C153.217 107.596 159.151 85.7825 139.777 82.0358Z" fill="white"/>
</svg>
